<?xml version="1.0" standalone="no"?>
<!DOCTYPE svg PUBLIC "-//W3C//DTD SVG 20010904//EN"
 "http://www.w3.org/TR/2001/REC-SVG-20010904/DTD/svg10.dtd">
<svg version="1.0" xmlns="http://www.w3.org/2000/svg"
 width="2000.000000pt" height="2000.000000pt" viewBox="0 0 2000.000000 2000.000000"
 preserveAspectRatio="xMidYMid meet">

<g transform="translate(0.000000,2000.000000) scale(0.100000,-0.100000)"
fill="#000000" stroke="none">
<path d="M9620 19993 c-1618 -70 -3106 -487 -4485 -1256 -1621 -903 -2964
-2246 -3873 -3872 -135 -241 -352 -683 -459 -935 -451 -1058 -696 -2089 -785
-3305 -16 -223 -16 -1027 0 -1250 104 -1409 424 -2607 1018 -3805 209 -423
401 -754 648 -1123 1668 -2491 4358 -4107 7316 -4396 387 -38 541 -45 995 -45
545 -1 821 16 1315 80 2451 316 4714 1554 6331 3464 1301 1537 2115 3459 2308
5450 39 392 45 541 45 1000 0 459 -6 608 -45 1000 -258 2654 -1597 5118 -3699
6806 -1121 900 -2454 1560 -3846 1903 -802 197 -1620 294 -2439 289 -154 -1
-309 -3 -345 -5z m-2420 -6878 l0 -1315 2800 0 2800 0 0 1315 0 1315 637 0
636 0 -6 -3297 c-4 -1814 -7 -3783 -7 -4375 l0 -1078 -630 0 -630 0 0 1345 0
1345 -2800 0 -2800 0 0 -1345 0 -1345 -635 0 -635 0 0 4375 0 4375 635 0 635
0 0 -1315z"/>
<path d="M7260 10085 l0 -695 2795 0 2795 0 0 695 0 695 -2795 0 -2795 0 0
-695z"/>
</g>
</svg>
